<svg xmlns="http://www.w3.org/2000/svg" version="1.1" xmlns:xlink="http://www.w3.org/1999/xlink" xmlns:svgjs="http://svgjs.dev/svgjs" width="100%" height="100%" viewBox="0 0 1000 600"><rect width="1000" height="600" x="0" y="0" fill="transparent"/><g><rect width="333.3333333333333" height="333.3333333333333" rx="13.333333333333334" ry="13.333333333333334" y="247.42071804239103" fill="#48c78e" transform="matrix(0.5550657975213205,0,0,0.5550657975213205,0,70.15423564922533)" x="225.19842529296875"/><path d="M433.5333795051354 489.0873967564932L418.35463324913155 448.15166602360256L363.9104044003765 448.15166602360256L349.1418945296701 489.0873967564932L331.85336114927964 489.0873967564932L387.76271994552536 339.0873927323936L395.7623294588247 339.0873927323936L451.8768064477191 489.0873967564932L433.5333795051354 489.0873967564932ZM385.8580510137874 388.46227196283076L369.59510859664044 432.97291976759874L413.08016543816495 432.97291976759874L396.6121048283693 388.0227329785835L391.3376370174027 365.66484997987527L391.132518824754 365.66484997987527L385.8580510137874 388.46227196283076Z " fill="#f2f2f2" transform="matrix(0.5550657975213205,0,0,0.5550657975213205,0,70.15423564922533)"/><path d="M741.8650851789506 486.60900879408024L726.9371310696495 446.34964220972944L673.3924616969052 446.34964220972944L658.8679658067744 486.60900879408024L641.8650837131688 486.60900879408024L696.8506752972355 339.08739279888215L704.7181105710565 339.08739279888215L759.9054312647083 486.60900879408024L741.8650851789506 486.60900879408024ZM694.9774764225162 387.6464713204506L678.9832398768365 431.4216881004283L721.7498111088885 431.4216881004283L705.5538454536235 387.21419465705384L700.3665254928625 365.2257217122724L700.1647963832773 365.2257217122724L694.9774764225162 387.6464713204506ZM860.7699860572839 486.60900879408024L844.1705621828486 486.60900879408024L844.1705621828486 427.47356124140464Q844.1705621828486 411.2775955861397 839.5019742181636 403.0931574258278Q834.8333862534787 394.908719265516 822.3838183476522 394.908719265516L822.3838183476522 394.908719265516Q811.3751726531483 394.908719265516 804.2281984849886 400.8165003319383Q797.0524058726025 406.7242813983606 794.1417430057311 415.6579991085601L794.1417430057311 415.6579991085601L794.1417430057311 486.60900879408024L777.5423191312959 486.60900879408024L777.5423191312959 382.86260957885986L789.1849705987818 382.86260957885986L792.2973625752384 395.5139065942715L793.1042790135789 395.5139065942715Q798.0898698647547 388.885664422188 806.5048555788783 384.62053467667334Q814.8910228487753 380.38422337538515 826.533674316261 380.38422337538515L826.533674316261 380.38422337538515Q835.0351153630638 380.38422337538515 841.4616284255623 382.34387758278376Q847.8881414880606 384.3035317901824 852.1532712335752 389.28912264135823Q856.3895825348634 394.2747134925341 858.5797842960736 402.6896992066575Q860.7699860572839 411.0758664765545 860.7699860572839 423.9577110457777L860.7699860572839 423.9577110457777L860.7699860572839 486.60900879408024ZM894.5740211349098 486.60900879408024L894.5740211349098 382.86260957885986L911.173445009345 382.86260957885986L911.173445009345 486.60900879408024L894.5740211349098 486.60900879408024ZM891.0581709392828 351.33523159512345L891.0581709392828 351.33523159512345Q891.0581709392828 346.5513698535327 894.2570182484188 343.12197499058516Q897.4846840017813 339.6925801276376 902.4702748529571 339.6925801276376L902.4702748529571 339.6925801276376Q907.455865704133 339.6925801276376 910.9717158997598 343.12197499058516Q914.4875660953869 346.5513698535327 914.4875660953869 351.33523159512345L914.4875660953869 351.33523159512345Q914.4875660953869 356.09027489248774 910.9717158997598 359.20266686894433Q907.455865704133 362.3150588454009 902.4702748529571 362.3150588454009L902.4702748529571 362.3150588454009Q897.4846840017813 362.3150588454009 894.2570182484188 359.20266686894433Q891.0581709392828 356.09027489248774 891.0581709392828 351.33523159512345ZM965.1215726012597 341.36404989277173L965.1215726012597 461.07586720944545Q965.1215726012597 468.33811515451083 967.6287772489608 471.4505071309675Q970.1071634524355 474.56289910742413 974.6604776402146 474.56289910742413L974.6604776402146 474.56289910742413Q977.3694113975009 474.56289910742413 980.4818033739575 474.1594408882538Q983.5941953504141 473.7559826690835 987.5423222094378 472.28624201353455L987.5423222094378 472.28624201353455L989.415521084157 485.3698156923429Q986.0725815538888 487.01246701325056 980.1648004874666 488.04993100540275Q974.2570194210443 489.08739499755495 969.9054343428504 489.08739499755495L969.9054343428504 489.08739499755495Q960.5682584134805 489.08739499755495 954.5452035701524 483.8136197041146Q948.5221487268243 478.5110259664478 948.5221487268243 465.8597289510362L948.5221487268243 465.8597289510362L948.5221487268243 341.36404989277173L965.1215726012597 341.36404989277173ZM1151.6633620790712 341.36404989277173L1151.6633620790712 356.7242806654696L1106.4184046435446 356.7242806654696L1106.4184046435446 486.60900879408024L1089.2137934403538 486.60900879408024L1089.2137934403538 356.7242806654696L1043.9688360048272 356.7242806654696L1043.9688360048272 341.36404989277173L1151.6633620790712 341.36404989277173ZM1174.8910281255899 486.60900879408024L1174.8910281255899 382.86260957885986L1191.4904520000252 382.86260957885986L1191.4904520000252 486.60900879408024L1174.8910281255899 486.60900879408024ZM1171.375177929963 351.33523159512345L1171.375177929963 351.33523159512345Q1171.375177929963 346.5513698535327 1174.6028436833253 343.12197499058516Q1177.8016909924613 339.6925801276376 1182.7872818436372 339.6925801276376L1182.7872818436372 339.6925801276376Q1187.772872694813 339.6925801276376 1191.28872289044 343.12197499058516Q1194.8333915302935 346.5513698535327 1194.8333915302935 351.33523159512345L1194.8333915302935 351.33523159512345Q1194.8333915302935 356.09027489248774 1191.28872289044 359.20266686894433Q1187.772872694813 362.3150588454009 1182.7872818436372 362.3150588454009L1182.7872818436372 362.3150588454009Q1177.8016909924613 362.3150588454009 1174.6028436833253 359.20266686894433Q1171.375177929963 356.09027489248774 1171.375177929963 351.33523159512345ZM1282.1820959806637 382.86260957885986L1294.1993872230933 382.86260957885986L1318.061059042594 443.438979342858L1323.2483790033552 463.38134274756146L1323.6806556667518 463.38134274756146L1327.6287825257755 443.0355211236877L1346.0725868307036 382.86260957885986L1361.8650942667982 382.86260957885986L1326.9947767527938 488.8856658879698L1318.896793925161 488.8856658879698L1291.7210010196186 420.4130424059244L1287.7728741605952 403.4101603123188L1287.1676868318395 403.4101603123188L1283.0178308632308 420.6147715155095L1256.8506835056141 488.8856658879698L1248.781519122208 488.8856658879698L1212.6720085064662 382.86260957885986L1230.7123545922238 382.86260957885986L1251.2599053256827 443.23725023327285L1254.7757555213097 463.38134274756146L1255.0063030751212 463.38134274756146L1259.9630754820707 442.8337920141025L1282.1820959806637 382.86260957885986ZM1383.0178323290124 402.97788364892205L1377.8305123682517 390.52831574309556Q1385.726766086299 385.7732724457313 1396.1878613405001 383.49661535184174Q1406.6777750389283 381.1911398137258 1418.0898789526025 381.1911398137258L1418.0898789526025 381.1911398137258Q1428.867977093295 381.1911398137258 1435.409763932699 384.10180268059725Q1441.951550772103 387.01246554746865 1445.3809456350505 391.6810535121536Q1448.7815220537718 396.3496414768385 1449.93425982283 401.94041965676985Q1451.0869975918877 407.56001628092764 1451.0869975918877 413.15079446085895L1451.0869975918877 413.15079446085895Q1451.0869975918877 425.6003623666854 1450.452991818906 437.44474294375635Q1449.818986045924 449.2603050766009 1449.818986045924 459.8366741077081L1449.818986045924 459.8366741077081Q1449.818986045924 467.5311987161703 1450.452991818906 474.36116999783894Q1451.0869975918877 481.2199597237341 1452.7296489127955 487.01246701325056L1452.7296489127955 487.01246701325056L1440.4818101165542 487.01246701325056L1436.13022503836 472.48797112311973L1435.092761046208 472.48797112311973Q1433.2195621714886 475.3986339899912 1430.424173081523 478.1940230799568Q1427.6287839915576 481.01823061414893 1423.6806571325337 483.1796139311327Q1419.73253027351 485.3698156923429 1414.545210312749 486.81073790366537Q1409.3578903519879 488.2804785592144 1402.7296481799044 488.2804785592144L1402.7296481799044 488.2804785592144Q1396.101406007821 488.2804785592144 1390.3953540509838 486.20555057491Q1384.6893020941466 484.1306225906056 1380.5394461255378 480.2689510642612Q1376.389590156929 476.4360979821434 1373.9976592861337 471.04704891179716Q1371.6057284153385 465.65799984145104 1371.6057284153385 458.7992101155559L1371.6057284153385 458.7992101155559Q1371.6057284153385 449.6637632957712 1375.352126164777 443.5542531197638Q1379.069705469989 437.44474294375635 1385.8132214189782 433.81361897122366Q1392.5567373679676 430.18249499869097 1402.0091870742433 428.6262990104626Q1411.4328183362925 427.0701030222343 1422.8449222499667 427.0701030222343L1422.8449222499667 427.0701030222343Q1425.7555851168381 427.0701030222343 1428.5509742068039 427.0701030222343Q1431.375181740996 427.0701030222343 1434.257026163641 427.47356124140464L1434.257026163641 427.47356124140464Q1434.8910319366228 421.2487772884914 1434.8910319366228 416.26318643731554L1434.8910319366228 416.26318643731554Q1434.8910319366228 404.8510825236413 1430.3377177488437 400.2977683358622Q1425.7555851168381 395.7156357038566 1413.7382938744086 395.7156357038566L1413.7382938744086 395.7156357038566Q1410.193625234555 395.7156357038566 1406.1590430428523 396.2343676999327Q1402.0956424069227 396.7530996960088 1397.8593311056345 397.70410835548165Q1393.5942013601198 398.62629857072807 1389.761348278002 399.98076544937123Q1385.928495195884 401.3352323280144 1383.0178323290124 402.97788364892205L1383.0178323290124 402.97788364892205ZM1407.2829623676835 473.7559826690835L1407.2829623676835 473.7559826690835Q1413.1042881014264 473.7559826690835 1417.6576022892054 472.1997866808552Q1422.2397349212113 470.6435906926269 1425.5538560072528 468.25165982183154Q1428.867977093295 465.8597289510362 1431.058178854505 462.9490660841647Q1433.2195621714886 460.03840321729325 1434.257026163641 457.3582879042334L1434.257026163641 457.3582879042334L1434.257026163641 440.12485825681625Q1431.375181740996 439.92312914723107 1428.3492450972185 439.8078553703253Q1425.3521268976679 439.72140003764594 1422.4414640307964 439.72140003764594L1422.4414640307964 439.72140003764594Q1416.0149509682979 439.72140003764594 1409.876622348064 440.4418611433072Q1403.7671121720568 441.16232224896845 1399.0985242073716 443.1507949005935Q1394.4299362426868 445.1104491079921 1391.634547152721 448.53984397093967Q1388.8391580627554 451.96923883388723 1388.8391580627554 457.1565587946482L1388.8391580627554 457.1565587946482Q1388.8391580627554 464.41880673971366 1394.0264780235166 469.0873947043986Q1399.2137979842776 473.7559826690835 1407.2829623676835 473.7559826690835ZM1534.8910334024047 382.86260957885986L1531.3751832067778 398.82802768031326Q1525.1503992538646 396.7530996960088 1519.5596210739332 396.7530996960088L1519.5596210739332 396.7530996960088Q1510.6259033637336 396.7530996960088 1505.4385834029727 401.6522352145053Q1500.251263442212 406.5225522887754 1499.0120703404743 413.98652934342596L1499.0120703404743 413.98652934342596L1499.0120703404743 486.60900879408024L1482.4126464660392 486.60900879408024L1482.4126464660392 382.86260957885986L1494.0264794892983 382.86260957885986L1497.138871465755 395.5139065942715L1497.974606348322 395.5139065942715Q1501.9227332073458 388.45338775879117 1507.3982376103713 384.62053467667334Q1512.9025604576232 380.78768159455547 1521.4040015044259 380.78768159455547L1521.4040015044259 380.78768159455547Q1527.4270563477542 380.78768159455547 1534.8910334024047 382.86260957885986L1534.8910334024047 382.86260957885986ZM1556.4760481280157 486.60900879408024L1556.4760481280157 382.86260957885986L1573.075472002451 382.86260957885986L1573.075472002451 486.60900879408024L1556.4760481280157 486.60900879408024ZM1552.960197932389 351.33523159512345L1552.960197932389 351.33523159512345Q1552.960197932389 346.5513698535327 1556.1590452415248 343.12197499058516Q1559.3867109948872 339.6925801276376 1564.3723018460632 339.6925801276376L1564.3723018460632 339.6925801276376Q1569.357892697239 339.6925801276376 1572.873742892866 343.12197499058516Q1576.3895930884928 346.5513698535327 1576.3895930884928 351.33523159512345L1576.3895930884928 351.33523159512345Q1576.3895930884928 356.09027489248774 1572.873742892866 359.20266686894433Q1569.357892697239 362.3150588454009 1564.3723018460632 362.3150588454009L1564.3723018460632 362.3150588454009Q1559.3867109948872 362.3150588454009 1556.1590452415248 359.20266686894433Q1552.960197932389 356.09027489248774 1552.960197932389 351.33523159512345Z " fill="#48c78e" transform="matrix(0.5550657975213205,0,0,0.5550657975213205,0,70.15423564922533)"/></g></svg>